<svg width="61" height="44" viewBox="0 0 61 44" fill="none" xmlns="http://www.w3.org/2000/svg">
<path d="M0 1H11M22 1H11M11 1V43H0H22" stroke="white" stroke-width="2"/>
<path d="M36.2656 43C33.3473 40.2542 31.7414 40.2368 29 43L34.3281 2.08645C36.2192 0.690816 37.2809 0.585832 39.1719 2.08645M36.2656 43L39.1719 2.08645M36.2656 43C39.3884 40.1556 41.1967 40.3188 44.5 43M39.1719 2.08645C41.1699 1.09096 42.318 0.865157 44.5 2.08645M44.5 43V2.08645M44.5 43C47.3497 40.3721 49.0394 40.2884 52.25 43M44.5 2.08645C46.2969 0.906059 47.3046 0.705274 49.1016 2.08645M49.1016 2.08645C50.8166 1.17976 51.8031 0.950908 53.7031 2.08645L60 43C56.8737 40.4508 55.193 40.8589 52.25 43M49.1016 2.08645L52.25 43" stroke="white" stroke-width="2" stroke-linejoin="bevel"/>
</svg>
