<svg width="49" height="43" viewBox="0 0 49 43" fill="none" xmlns="http://www.w3.org/2000/svg">
<circle cx="10.7143" cy="31.607" r="6.03571" stroke="white" stroke-width="4"/>
<path d="M9.82145 20.8928H11.6072L12.5 25.3571H8.92859L9.82145 20.8928Z" fill="white"/>
<path d="M9.82145 42.3213H11.6072L12.5 37.857H8.92859L9.82145 42.3213Z" fill="white"/>
<path d="M0 30.7141V32.4999L4.46429 33.3927V29.8213L0 30.7141Z" fill="white"/>
<path d="M21.4286 30.7141V32.4999L16.9643 33.3927V29.8213L21.4286 30.7141Z" fill="white"/>
<path d="M17.181 23.3098L18.4437 24.5725L15.9183 28.3606L13.393 25.8352L17.181 23.3098Z" fill="white"/>
<path d="M3.35468 39.9043L2.09199 38.6416L4.61737 34.8535L7.14275 37.3789L3.35468 39.9043Z" fill="white"/>
<path d="M2.41705 24.5725L3.67974 23.3098L7.46781 25.8352L4.94243 28.3606L2.41705 24.5725Z" fill="white"/>
<path d="M18.4437 38.9666L17.181 40.2292L13.3929 37.7039L15.9183 35.1785L18.4437 38.9666Z" fill="white"/>
<circle cx="31.5178" cy="16.5178" r="9.38839" stroke="white" stroke-width="6"/>
<path d="M30.1414 0H32.8944L34.2709 6.88244H28.765L30.1414 0Z" fill="white"/>
<path d="M30.1414 33.0356H32.8944L34.2709 26.1532H28.765L30.1414 33.0356Z" fill="white"/>
<path d="M15 15.1414V17.8944L21.8824 19.2708V13.7649L15 15.1414Z" fill="white"/>
<path d="M48.0357 15.1414V17.8944L41.1533 19.2708V13.7649L48.0357 15.1414Z" fill="white"/>
<path d="M41.4873 3.72625L43.4339 5.6729L39.5407 11.5128L35.6474 7.61955L41.4873 3.72625Z" fill="white"/>
<path d="M20.1718 29.3094L18.2252 27.3627L22.1185 21.5228L26.0118 25.4161L20.1718 29.3094Z" fill="white"/>
<path d="M18.7263 5.67292L20.6729 3.72627L26.5128 7.61956L22.6196 11.5129L18.7263 5.67292Z" fill="white"/>
<path d="M43.4341 27.8637L41.4874 29.8104L35.6475 25.9171L39.5408 22.0238L43.4341 27.8637Z" fill="white"/>
</svg>
