<svg width="79" height="46" viewBox="0 0 79 46" fill="none" xmlns="http://www.w3.org/2000/svg">
<path d="M74.3132 44.0001C68.4406 42.1709 57.042 37.184 58.4283 31.8698C60.1612 25.227 76.9126 35.9132 76.9126 29.8481C76.9126 24.996 63.627 19.3544 56.9843 17.1401" stroke="white" stroke-width="3" stroke-linecap="round"/>
<rect x="35.6118" y="10.8843" width="8.08685" height="23.6829" rx="4.04343" transform="rotate(-64.8219 35.6118 10.8843)" fill="white"/>
<path d="M42.2173 9.91295L51.3042 4.54346L60.391 9.91295" stroke="white" stroke-width="3" stroke-linecap="round"/>
<rect x="25.8737" y="4.11621" width="4.5484" height="18.4866" rx="2.2742" transform="rotate(-64.8219 25.8737 4.11621)" fill="white"/>
<path d="M38.7888 24.6493H20.8822L41.0993 36.2019L30.9907 27.2486L38.7888 24.6493Z" fill="white"/>
<path d="M30.4131 3.27686L18.2828 21.7611" stroke="white"/>
<path d="M9.61837 10.7861L14.2394 22.0499L0.0874329 8.7644L9.61837 15.696V10.7861Z" fill="white"/>
</svg>
