<?xml version="1.0" encoding="UTF-8"?>
<svg id="Logo_1" xmlns="http://www.w3.org/2000/svg" viewBox="0 0 513.89 566.05">
  <defs>
    <style>
      .cls-1 {
        fill: #003151;
      }

      .cls-2 {
        opacity: 0;
      }
    </style>
  </defs>
  <g>
    <path class="cls-1" d="M477.69,247.52c0,67.32-18.11,119.86-54.3,157.63-36.21,37.77-87.38,56.65-153.52,56.65-44.62,0-84.83-9.39-120.65-28.18-35.81-18.79-63.61-44.42-83.36-76.91-19.77-32.48-29.65-68.78-29.65-108.9s9.78-76.41,29.35-108.9c19.57-32.48,46.57-58.02,81.02-76.61,34.44-18.58,72.8-27.89,115.07-27.89,26.61,0,53.72,3.62,81.31,10.86,27.59,7.25,50.58,16.93,68.98,29.06l11.74,82.78h-5.28c-8.22-32.88-27.21-58.61-56.95-77.2-29.75-18.58-62.82-27.89-99.22-27.89-52.06,0-95.4,18.49-130.04,55.48-34.64,36.99-51.96,83.47-51.96,139.43s17.91,102.84,53.72,140.6c35.81,37.77,82.68,56.65,140.6,56.65s105.18-18.79,141.78-56.36c36.59-37.57,54.89-89.03,54.89-154.4h5.87c.38,4.7.59,9.39.59,14.09Z"/>
    <path class="cls-1" d="M349.07,324.1c-6.18,1.62-11.66,2.43-16.43,2.43s-9.01-.3-12.68-.88c-3.68-.59-7.61-1.73-11.8-3.42-4.19-1.69-8.13-3.64-11.8-5.85-3.68-2.21-7.36-4.93-11.03-8.16-6.77-5.44-12.9-11.33-18.42-17.65-5.51-6.32-16.14-18.2-31.87-35.62-15.74-17.43-26.18-29.01-31.32-34.74-5.15-5.74-9.12-8.75-11.91-9.04v-2.21c8.53,0,14.23-.18,17.09-.55,2.87-.37,5.92-1.03,9.15-1.99,3.23-.95,5.96-2.24,8.16-3.86,8.67-5.59,13.01-14.85,13.01-27.79,0-10.73-2.39-19.33-7.17-25.81-4.78-6.47-11.51-9.78-20.18-9.93h-27.35v131.47c0,3.68,1.36,6.91,4.08,9.71,2.72,2.79,6.07,4.19,10.04,4.19h2.65l.22,2.21h-48.31v-2.21h2.87c3.67,0,6.91-1.32,9.71-3.97,2.79-2.65,4.26-5.88,4.41-9.71v-122.42c-.15-3.82-1.58-7.09-4.3-9.82-2.72-2.72-5.99-4.08-9.82-4.08h-2.87v-2.21h59.56c12.94,0,23.34,3.64,31.21,10.92,7.87,7.28,11.8,16.91,11.8,28.9s-3.61,22.28-10.81,30.88c-7.21,8.6-16.03,12.9-26.47,12.9h-.22c5,5.29,10.66,11.47,16.98,18.53,25.44,28.09,41.76,45.74,48.97,52.94,7.2,7.2,13.57,13.12,19.08,17.76,5.51,4.63,10.4,8.05,14.67,10.26,8.67,4.7,17.28,7.06,25.81,7.06,1.76,0,3.53-.15,5.29-.44v2.21Z"/>
    <path class="cls-1" d="M347.31,272.43c-2.65,2.79-5.66,4.85-9.04,6.18,14.41,2.06,25.37,7.17,32.87,15.33,7.5,8.16,11.25,18.12,11.25,29.89,0,14.26-5.73,25.81-17.21,34.63-11.47,8.82-26.54,13.23-45.22,13.23s-33.31-4.59-43.9-13.79c-10.59-9.19-15.88-22.17-15.88-38.93v-2.65l2.43-.44c2.94,21.91,12.06,36.1,27.35,42.57v-128.38c-.3-3.97-1.8-7.24-4.52-9.82-2.72-2.57-5.99-3.86-9.82-3.86h-2.65v-2.21h37.06c13.82,0,24.89,3.16,33.2,9.48,8.31,6.32,12.46,14.6,12.46,24.82s-2.79,18.2-8.38,23.93ZM304.29,221.26v141.17c4.85.74,10.44,1.1,16.76,1.1,14.12,0,25.11-3.78,32.98-11.36,7.87-7.57,11.8-17.39,11.8-29.45,0-6.47-1.21-12.2-3.64-17.21-2.43-5-5.48-8.9-9.15-11.69-9.71-7.5-23.38-11.25-41.03-11.25h-.22l-.22-1.99h.22c7.5,0,13.93-2.46,19.3-7.39,5.37-4.92,8.05-12.53,8.05-22.83,0-19.41-10.66-29.12-31.98-29.12h-2.87Z"/>
  </g>
  <g>
    <path class="cls-1" d="M113.51,498.28c2.16.96,3.82,2.34,4.97,4.13,1.15,1.79,1.73,3.92,1.73,6.38s-.58,4.55-1.73,6.36-2.81,3.19-4.97,4.15c-2.16.96-4.7,1.44-7.61,1.44h-7.58v9.7h-6.24v-33.6h13.82c2.91,0,5.45.48,7.61,1.44ZM111.81,513.73c1.41-1.15,2.11-2.8,2.11-4.94s-.7-3.79-2.11-4.94c-1.41-1.15-3.47-1.73-6.19-1.73h-7.3v13.34h7.3c2.72,0,4.78-.58,6.19-1.73Z"/>
    <path class="cls-1" d="M153.23,530.44l-6.86-9.84c-.29.03-.72.05-1.3.05h-7.58v9.79h-6.24v-33.6h13.82c2.91,0,5.45.48,7.61,1.44,2.16.96,3.82,2.34,4.97,4.13,1.15,1.79,1.73,3.92,1.73,6.38s-.62,4.7-1.85,6.53c-1.23,1.82-3,3.18-5.3,4.08l7.73,11.04h-6.72ZM150.98,503.85c-1.41-1.15-3.47-1.73-6.19-1.73h-7.3v13.39h7.3c2.72,0,4.78-.58,6.19-1.75,1.41-1.17,2.11-2.82,2.11-4.97s-.7-3.79-2.11-4.94Z"/>
    <path class="cls-1" d="M177.57,528.69c-2.75-1.49-4.91-3.55-6.48-6.19-1.57-2.64-2.35-5.59-2.35-8.86s.78-6.22,2.35-8.86c1.57-2.64,3.73-4.7,6.48-6.19,2.75-1.49,5.84-2.23,9.26-2.23s6.51.74,9.26,2.23c2.75,1.49,4.91,3.54,6.48,6.17,1.57,2.62,2.35,5.58,2.35,8.88s-.78,6.26-2.35,8.88c-1.57,2.62-3.73,4.68-6.48,6.17-2.75,1.49-5.84,2.23-9.26,2.23s-6.51-.74-9.26-2.23ZM192.88,523.93c1.79-1.01,3.2-2.42,4.22-4.22,1.02-1.81,1.54-3.83,1.54-6.07s-.51-4.26-1.54-6.07c-1.03-1.81-2.43-3.22-4.22-4.22-1.79-1.01-3.81-1.51-6.05-1.51s-4.26.5-6.05,1.51c-1.79,1.01-3.2,2.42-4.22,4.22s-1.54,3.83-1.54,6.07.51,4.26,1.54,6.07c1.02,1.81,2.43,3.22,4.22,4.22,1.79,1.01,3.81,1.51,6.05,1.51s4.26-.5,6.05-1.51Z"/>
    <path class="cls-1" d="M229.41,518.58v11.86h-6.24v-11.76l-13.2-21.84h6.67l9.84,16.37,9.94-16.37h6.14l-13.15,21.74Z"/>
    <path class="cls-1" d="M276.16,525.21v5.23h-25.2v-33.6h24.53v5.23h-18.29v8.74h16.22v5.14h-16.22v9.26h18.96Z"/>
    <path class="cls-1" d="M294.13,528.69c-2.74-1.49-4.88-3.54-6.43-6.17-1.55-2.62-2.33-5.58-2.33-8.88s.78-6.26,2.35-8.88c1.57-2.62,3.72-4.68,6.46-6.17,2.74-1.49,5.8-2.23,9.19-2.23,2.75,0,5.26.48,7.54,1.44,2.27.96,4.19,2.35,5.76,4.18l-4.03,3.79c-2.43-2.62-5.42-3.94-8.98-3.94-2.3,0-4.37.5-6.19,1.51-1.82,1.01-3.25,2.41-4.27,4.2-1.02,1.79-1.54,3.82-1.54,6.1s.51,4.3,1.54,6.1,2.45,3.19,4.27,4.2c1.82,1.01,3.89,1.51,6.19,1.51,3.55,0,6.54-1.33,8.98-3.98l4.03,3.84c-1.57,1.82-3.5,3.22-5.78,4.18-2.29.96-4.81,1.44-7.56,1.44-3.39,0-6.46-.74-9.19-2.23Z"/>
    <path class="cls-1" d="M333.9,502.12h-11.14v-5.28h28.51v5.28h-11.14v28.32h-6.24v-28.32Z"/>
    <path class="cls-1" d="M366.74,528.69c-2.75-1.49-4.91-3.55-6.48-6.19-1.57-2.64-2.35-5.59-2.35-8.86s.78-6.22,2.35-8.86c1.57-2.64,3.73-4.7,6.48-6.19,2.75-1.49,5.84-2.23,9.26-2.23s6.51.74,9.26,2.23c2.75,1.49,4.91,3.54,6.48,6.17,1.57,2.62,2.35,5.58,2.35,8.88s-.78,6.26-2.35,8.88c-1.57,2.62-3.73,4.68-6.48,6.17-2.75,1.49-5.84,2.23-9.26,2.23s-6.51-.74-9.26-2.23ZM382.05,523.93c1.79-1.01,3.2-2.42,4.22-4.22,1.02-1.81,1.54-3.83,1.54-6.07s-.51-4.26-1.54-6.07c-1.03-1.81-2.43-3.22-4.22-4.22-1.79-1.01-3.81-1.51-6.05-1.51s-4.26.5-6.05,1.51c-1.79,1.01-3.2,2.42-4.22,4.22s-1.54,3.83-1.54,6.07.51,4.26,1.54,6.07c1.02,1.81,2.43,3.22,4.22,4.22,1.79,1.01,3.81,1.51,6.05,1.51s4.26-.5,6.05-1.51Z"/>
    <path class="cls-1" d="M408.42,529.81c-2.42-.74-4.33-1.71-5.74-2.93l2.16-4.85c1.38,1.09,3.06,1.98,5.06,2.66,2,.69,4.01,1.03,6.02,1.03,2.5,0,4.36-.4,5.59-1.2,1.23-.8,1.85-1.86,1.85-3.17,0-.96-.34-1.75-1.03-2.38-.69-.62-1.56-1.11-2.62-1.46-1.06-.35-2.5-.75-4.32-1.2-2.56-.61-4.63-1.22-6.22-1.82-1.58-.61-2.94-1.56-4.08-2.86s-1.7-3.05-1.7-5.26c0-1.86.5-3.54,1.51-5.06,1.01-1.52,2.53-2.73,4.56-3.62,2.03-.9,4.52-1.34,7.46-1.34,2.05,0,4.06.26,6.05.77,1.98.51,3.7,1.25,5.14,2.21l-1.97,4.85c-1.47-.86-3.01-1.52-4.61-1.97-1.6-.45-3.15-.67-4.66-.67-2.46,0-4.3.42-5.5,1.25-1.2.83-1.8,1.94-1.8,3.31,0,.96.34,1.74,1.03,2.35.69.61,1.56,1.09,2.62,1.44,1.06.35,2.5.75,4.32,1.2,2.5.58,4.54,1.18,6.14,1.8,1.6.62,2.97,1.58,4.1,2.86,1.14,1.28,1.7,3.01,1.7,5.18,0,1.86-.5,3.54-1.51,5.04s-2.54,2.7-4.58,3.6-4.54,1.34-7.49,1.34c-2.59,0-5.1-.37-7.51-1.1Z"/>
  </g>
  <g class="cls-2">
    <path class="cls-1" d="M260.82,562.77c-2.75-1.49-4.91-3.55-6.48-6.19-1.57-2.64-2.35-5.59-2.35-8.86s.78-6.22,2.35-8.86c1.57-2.64,3.73-4.7,6.48-6.19,2.75-1.49,5.84-2.23,9.26-2.23s6.51.74,9.26,2.23c2.75,1.49,4.91,3.54,6.48,6.17,1.57,2.62,2.35,5.58,2.35,8.88s-.78,6.26-2.35,8.88c-1.57,2.62-3.73,4.68-6.48,6.17-2.75,1.49-5.84,2.23-9.26,2.23s-6.51-.74-9.26-2.23ZM276.13,558.01c1.79-1.01,3.2-2.42,4.22-4.22,1.02-1.81,1.54-3.83,1.54-6.07s-.51-4.26-1.54-6.07c-1.03-1.81-2.43-3.22-4.22-4.22-1.79-1.01-3.81-1.51-6.05-1.51s-4.26.5-6.05,1.51c-1.79,1.01-3.2,2.42-4.22,4.22s-1.54,3.83-1.54,6.07.51,4.26,1.54,6.07c1.02,1.81,2.43,3.22,4.22,4.22,1.79,1.01,3.81,1.51,6.05,1.51s4.26-.5,6.05-1.51Z"/>
    <path class="cls-1" d="M260.82,494.13c-2.75-1.49-4.91-3.55-6.48-6.19-1.57-2.64-2.35-5.59-2.35-8.86s.78-6.22,2.35-8.86c1.57-2.64,3.73-4.7,6.48-6.19,2.75-1.49,5.84-2.23,9.26-2.23s6.51.74,9.26,2.23c2.75,1.49,4.91,3.54,6.48,6.17,1.57,2.62,2.35,5.58,2.35,8.88s-.78,6.26-2.35,8.88c-1.57,2.62-3.73,4.68-6.48,6.17-2.75,1.49-5.84,2.23-9.26,2.23s-6.51-.74-9.26-2.23ZM276.13,489.37c1.79-1.01,3.2-2.42,4.22-4.22,1.02-1.81,1.54-3.83,1.54-6.07s-.51-4.26-1.54-6.07c-1.03-1.81-2.43-3.22-4.22-4.22-1.79-1.01-3.81-1.51-6.05-1.51s-4.26.5-6.05,1.51c-1.79,1.01-3.2,2.42-4.22,4.22s-1.54,3.83-1.54,6.07.51,4.26,1.54,6.07c1.02,1.81,2.43,3.22,4.22,4.22,1.79,1.01,3.81,1.51,6.05,1.51s4.26-.5,6.05-1.51Z"/>
    <path class="cls-1" d="M486.53,272.65c-2.75-1.49-4.91-3.55-6.48-6.19-1.57-2.64-2.35-5.59-2.35-8.86s.78-6.22,2.35-8.86c1.57-2.64,3.73-4.7,6.48-6.19,2.75-1.49,5.84-2.23,9.26-2.23s6.51.74,9.26,2.23c2.75,1.49,4.91,3.54,6.48,6.17,1.57,2.62,2.35,5.58,2.35,8.88s-.78,6.26-2.35,8.88c-1.57,2.62-3.73,4.68-6.48,6.17-2.75,1.49-5.84,2.23-9.26,2.23s-6.51-.74-9.26-2.23ZM501.84,267.9c1.79-1.01,3.2-2.42,4.22-4.22,1.02-1.81,1.54-3.83,1.54-6.07s-.51-4.26-1.54-6.07c-1.03-1.81-2.43-3.22-4.22-4.22-1.79-1.01-3.81-1.51-6.05-1.51s-4.26.5-6.05,1.51c-1.79,1.01-3.2,2.42-4.22,4.22s-1.54,3.83-1.54,6.07.51,4.26,1.54,6.07c1.02,1.81,2.43,3.22,4.22,4.22,1.79,1.01,3.81,1.51,6.05,1.51s4.26-.5,6.05-1.51Z"/>
    <path class="cls-1" d="M260.82,32.18c-2.75-1.49-4.91-3.55-6.48-6.19-1.57-2.64-2.35-5.59-2.35-8.86s.78-6.22,2.35-8.86c1.57-2.64,3.73-4.7,6.48-6.19,2.75-1.49,5.84-2.23,9.26-2.23s6.51.74,9.26,2.23c2.75,1.49,4.91,3.54,6.48,6.17,1.57,2.62,2.35,5.58,2.35,8.88s-.78,6.26-2.35,8.88c-1.57,2.62-3.73,4.68-6.48,6.17-2.75,1.49-5.84,2.23-9.26,2.23s-6.51-.74-9.26-2.23ZM276.13,27.42c1.79-1.01,3.2-2.42,4.22-4.22,1.02-1.81,1.54-3.83,1.54-6.07s-.51-4.26-1.54-6.07c-1.03-1.81-2.43-3.22-4.22-4.22-1.79-1.01-3.81-1.51-6.05-1.51s-4.26.5-6.05,1.51c-1.79,1.01-3.2,2.42-4.22,4.22s-1.54,3.83-1.54,6.07.51,4.26,1.54,6.07c1.02,1.81,2.43,3.22,4.22,4.22,1.79,1.01,3.81,1.51,6.05,1.51s4.26-.5,6.05-1.51Z"/>
    <path class="cls-1" d="M8.85,272.65c-2.75-1.49-4.91-3.55-6.48-6.19-1.57-2.64-2.35-5.59-2.35-8.86s.78-6.22,2.35-8.86c1.57-2.64,3.73-4.7,6.48-6.19,2.75-1.49,5.84-2.23,9.26-2.23s6.51.74,9.26,2.23c2.75,1.49,4.91,3.54,6.48,6.17,1.57,2.62,2.35,5.58,2.35,8.88s-.78,6.26-2.35,8.88c-1.57,2.62-3.73,4.68-6.48,6.17-2.75,1.49-5.84,2.23-9.26,2.23s-6.51-.74-9.26-2.23ZM24.16,267.9c1.79-1.01,3.2-2.42,4.22-4.22,1.02-1.81,1.54-3.83,1.54-6.07s-.51-4.26-1.54-6.07c-1.03-1.81-2.43-3.22-4.22-4.22-1.79-1.01-3.81-1.51-6.05-1.51s-4.26.5-6.05,1.51c-1.79,1.01-3.2,2.42-4.22,4.22s-1.54,3.83-1.54,6.07.51,4.26,1.54,6.07c1.02,1.81,2.43,3.22,4.22,4.22,1.79,1.01,3.81,1.51,6.05,1.51s4.26-.5,6.05-1.51Z"/>
  </g>
</svg>